<?xml version="1.0" encoding="utf-8"?>
<!-- Svg Vector Icons : http://www.onlinewebfonts.com/icon -->
<!DOCTYPE svg PUBLIC "-//W3C//DTD SVG 1.1//EN" "http://www.w3.org/Graphics/SVG/1.1/DTD/svg11.dtd">
<svg version="1.1" xmlns="http://www.w3.org/2000/svg" xmlns:xlink="http://www.w3.org/1999/xlink" x="0px" y="0px" viewBox="0 0 256 256" enable-background="new 0 0 256 256" xml:space="preserve">
<metadata> Svg Vector Icons : http://www.onlinewebfonts.com/icon </metadata>
<g><g><g><path fill="#000000" d="M120.5,10.1c-18.3,1.6-32.6,5.6-47.4,13.3C51.6,34.6,33.3,53.2,22.4,74.9C14,91.8,10,108.7,10,128c0,19.3,4,36.3,12.4,53c9.6,19.2,25.8,36.7,44.4,48c38.7,23.6,88.4,22.6,126.4-2.7c49.1-32.6,66.6-95.9,41.4-149.1c-5.9-12.3-13-22.3-23.2-32.6c-18.9-18.9-41-29.9-67.7-33.7C138.8,10.3,124.5,9.7,120.5,10.1z M135.1,47.9c11.6,0.6,20.6,5.4,24.1,12.8c1.2,2.7,1.3,3.3,1.5,9.4l0.1,6.6h14.7c8.1,0,15.8,0.2,17.2,0.5c5.7,1.1,11.6,5.4,14.4,10.6c2.3,4.1,2.6,7.1,2.7,23.7c0,13.8,0,15.3-0.7,16.1c-1.4,1.5-19.3,7.7-29.5,10.2c-10.2,2.5-21.2,3.9-32.4,4.3l-3.2,0.1l-0.2,9.2c-0.2,9.9-0.4,10.4-2.8,12.4c-2.2,1.8-4.2,2.1-13.2,2.1c-9,0-11-0.3-13.2-2.2c-2.6-2.2-2.8-3-2.8-12.7v-9l-6.3-0.6c-13.8-1.2-31.6-5.1-51.1-11.2c-3.3-1.1-6.5-2.4-7.2-3l-1.2-1.1l-0.1-13.8C45.6,96.7,46,92.7,48,88.5c1.6-3.4,5.4-7.3,8.6-9.1C61,77,63.5,76.7,80,76.7h15.1L95,70.6l-0.1-6.2l1.8-3.5c3-5.9,8.3-9.7,16.7-11.9c3.6-0.9,12.2-1.8,15.5-1.5C129.7,47.6,132.5,47.8,135.1,47.9z M52.4,137.3c0.9,0.9,0.9,1.7,1.2,19.9c0.2,17,0.3,19.2,1.1,20.5c1.4,2.5,3.6,4.8,6,6L63,185h64.6c60.9,0,64.7,0,66.4-0.8c2.4-1.1,5.3-3.8,6.5-6c1-1.8,1-2.5,1.2-20.9c0.2-18.9,0.2-19.1,1.2-20.1c1.4-1.4,4-1.4,5.4,0c1,1,1,1.2,1.2,18.2c0.1,11,0,18.2-0.4,20.1c-1.3,7.6-6.9,13.9-14.2,16.2c-2.9,0.9-4.5,0.9-67.3,0.9c-61.8,0-64.4,0-67.1-0.9c-7.3-2.3-12.6-8-14.2-15.7c-0.9-4.2-0.9-36.1,0-37.9C47.5,135.8,50.5,135.4,52.4,137.3z"/><path fill="#000000" d="M118.4,55.7c-7.2,1.3-12.3,3.7-14.6,7.1c-1,1.5-1.1,2.2-1.2,7.8l-0.2,6.1h25.4h25.4v-5.1c0-2.9-0.3-6-0.6-7.1c-1.2-3.8-5.5-6.8-12.4-8.4C135.7,55.1,123.5,54.9,118.4,55.7z"/><path fill="#000000" d="M60.6,86c-3,1.5-4.5,3.1-6,6.4c-0.9,1.9-1,3-1,15.8v13.7l5.9,1.8c16.9,5.3,35.1,9.2,48.8,10.4l3.3,0.3l0.2-2.3c0.3-2.8,1.7-4.9,4.1-6.1c1.8-0.9,2.6-0.9,12.4-0.8l10.5,0.1l1.7,1.3c2.1,1.6,3.1,3.4,3.1,5.9v1.8h2.4c8.8,0,23.4-1.9,32.9-4.4c5.2-1.3,17.9-5.4,22.1-7.1l1.3-0.6l-0.3-13.9l-0.3-13.9l-1.5-3c-1.5-3-3.9-5.3-7-6.4c-1.1-0.4-17.8-0.6-65.7-0.6l-64.2,0L60.6,86z"/><path fill="#000000" d="M119.1,145.3V158h8.5h8.5v-12.7v-12.7h-8.5h-8.5V145.3z"/></g></g></g>
</svg>